/* XPM */
static char *b27d7aedacb64078fde6065b37d9eacf1QDtwaqGtWTksYKi[] = {
/* columns rows colors chars-per-pixel */
"64 64 203 2 ",
"   c None",
".  c #000000",
"X  c #0A000B",
"o  c #090005",
"O  c #001800",
"+  c #120013",
"@  c #1C001C",
"#  c #170018",
"$  c #180000",
"%  c #270000",
"&  c #002400",
"*  c #002C00",
"=  c #003400",
"-  c #003B00",
";  c #2C002C",
":  c #250025",
">  c #320032",
",  c #3B003B",
"<  c #2F0530",
"1  c #252625",
"2  c #520000",
"3  c #580000",
"4  c #6C0000",
"5  c #670000",
"6  c #790000",
"7  c #7D3500",
"8  c #004300",
"9  c #004D00",
"0  c #005200",
"q  c #035C04",
"w  c #134316",
"e  c #1A5C1D",
"r  c #006400",
"t  c #156C15",
"y  c #13452A",
"u  c #244E2F",
"i  c #26542F",
"p  c #265D28",
"a  c #345938",
"s  c #214B30",
"d  c #2C632E",
"f  c #297629",
"g  c #2C782C",
"h  c #3A673B",
"j  c #397939",
"k  c #724000",
"l  c #7E562E",
"z  c #420043",
"x  c #4A004A",
"c  c #4C1D4C",
"v  c #550055",
"b  c #5A005B",
"n  c #501D50",
"m  c #4D274E",
"M  c #5B2B5B",
"N  c #503250",
"B  c #6B006C",
"V  c #650465",
"C  c #730073",
"Z  c #7B007B",
"A  c #6F0070",
"S  c #5F3260",
"D  c #752875",
"F  c #6F3A6F",
"G  c #3F6941",
"H  c #4E494F",
"J  c #426C44",
"K  c #437943",
"L  c #4B744B",
"P  c #477747",
"I  c #596A5C",
"U  c #5B7C5C",
"Y  c #567558",
"T  c #4E6F50",
"R  c #624B63",
"E  c #7A437A",
"W  c #775877",
"Q  c #5E7462",
"!  c #5C6F62",
"~  c #6C686C",
"^  c #637463",
"/  c #617C62",
"(  c #6D796D",
")  c #7A6C7A",
"_  c #776277",
"`  c #717671",
"'  c #727D72",
"]  c #797779",
"[  c #6E7D74",
"{  c #820F00",
"}  c #876F57",
"|  c #8E7762",
" . c #518351",
".. c #6A8A6B",
"X. c #6E916F",
"o. c #728573",
"O. c #7B8C7D",
"+. c #75867A",
"@. c #729573",
"#. c #799C79",
"$. c #789779",
"%. c #6F8771",
"&. c #97897C",
"*. c #840084",
"=. c #8C008C",
"-. c #930093",
";. c #9B009B",
":. c #872B87",
">. c #883188",
",. c #9D209D",
"<. c #A300A3",
"1. c #AB00AB",
"2. c #B300B3",
"3. c #BA00BA",
"4. c #B018B0",
"5. c #A534A5",
"6. c #B838B8",
"7. c #B426B4",
"8. c #9B479B",
"9. c #955895",
"0. c #8B6E8B",
"q. c #867586",
"w. c #936F93",
"e. c #956395",
"r. c #947594",
"t. c #947994",
"y. c #9B769B",
"u. c #9C7A9C",
"i. c #A758A7",
"p. c #B64EB6",
"a. c #B850B8",
"s. c #AB68AB",
"d. c #A779A8",
"f. c #B163B1",
"g. c #C500C5",
"h. c #CB00CB",
"j. c #C10AC1",
"k. c #D300D3",
"l. c #DE00DE",
"z. c #D51CD5",
"x. c #C935C9",
"c. c #D22CD2",
"v. c #D333D3",
"b. c #D13BD1",
"n. c #E200E2",
"m. c #E800E8",
"M. c #C05DC0",
"N. c #C276C2",
"B. c #7D8C81",
"V. c #8B8E8B",
"C. c #89958C",
"Z. c #869789",
"A. c #998899",
"S. c #8E9D91",
"D. c #929593",
"F. c #A19287",
"G. c #99A59C",
"H. c #9AAA9B",
"J. c #94A197",
"K. c #9DB09E",
"L. c #8EA08F",
"P. c #A7A198",
"I. c #A59DA5",
"U. c #A89BA8",
"Y. c #B286B2",
"T. c #B38AB3",
"R. c #BC9CBC",
"E. c #9FAEA1",
"W. c #A8AAA5",
"Q. c #A9B8AA",
"!. c #ACB4B1",
"~. c #B4BAB6",
"^. c #B6BDB9",
"/. c #B7AEA2",
"(. c #B6C2B8",
"). c #BAC3BC",
"_. c #B8C7B8",
"`. c #CA98CA",
"'. c #D09ED0",
"]. c #C3A2C3",
"[. c #E5ACE5",
"{. c #E9AEE9",
"}. c #E5BAE6",
"|. c #F6B9F7",
" X c #BDC4C0",
".X c #C6CBC6",
"XX c #C3D2C4",
"oX c #C8D4CA",
"OX c #CBD8CC",
"+X c #D2D6D5",
"@X c #D4D4CF",
"#X c #DDEADE",
"$X c #E1E1DC",
"%X c #FEC1FE",
"&X c #FFCAFF",
"*X c #FFD8FF",
"=X c #E1EEE2",
"-X c #E8EBE7",
";X c #FFE9FF",
":X c #FBEBFB",
">X c #FFFFFF",
",X c #F8F9F8",
"<X c #EDF3F0",
/* pixels */
"                                                                                                                                ",
"                                                                                                                                ",
"                                                                                                                                ",
"                                                                                                                                ",
"                                                                                                                                ",
"                                                                                                                                ",
"                                                        5 4 4 4 4 4                                                             ",
"                                                        4 4 4 4 4 6                                                             ",
"                                                    !.&.6 4 4 4 4 { F.~.                                                        ",
"                                                    +XW.7 2 2 2 3 7 P.).                                                        ",
"                                                >X>X>X.Xl o . $ % k W..X).^.                                                    ",
"                                                >X>X>X,X/.} | | } &.~..X).^.                                                    ",
"                                                    >X>X,X$X-X-X@X.X).).                                                        ",
"                                                    >X>X,X-X<X-X+X X~.!.                                                        ",
"                                                    +XoX~.W.G.C.[ +.S.W.                                                        ",
"                                                    S.Z.+.! s . . * +.G.                                                        ",
"                                                    C.Z.+.I y . . & +.G.                                                        ",
"                                                    E.J.B.Q s . . = O.G.                                                        ",
"                                                    ).!.C.Q u . . = O.G.                                . . . . . .             ",
"                                                    oX(.S.Q u . . = O.G.                                . . . . . .             ",
"                                                    oX_.S.Q i . . - O.G.                            . . . . . . . . . .         ",
"                                                    oX(.S.Q i O . - O.H.                            . . . . . . . . . .         ",
"                                                    oX(.S.Q i O . 8 O.H.                        . . . . . . . . . . . .         ",
"                                                    oX_.H.o.a & . 8 O.H.                        . . . . . . . . . . . .         ",
"                                                    oXXXQ.S.T & . 8 O.H.                    . . . . . . . . . . . .             ",
"                                                    oXXX(.H.Y & . - %.L.                    . . . . . . . . . . . .             ",
"                                                    oXXX_.H.Y = . * T %.            . . . . . . . . . . . . . .                 ",
"                                                    #XOX_.K.@.h = & 0 h             . . . . . . . . . . . . . .                 ",
"                                            ..W.=X,X,X=XXXQ.E.Z.J - * 8 G / / h . . . . . . . . . . . . . .                     ",
"                                            U..X>X>X>X>X#XXX(.H.U 9 * - e J J p * . . . . . . . . . . . . .                     ",
"                                        ..U.}.;X>X>X>X>X>X=XXXK.U 0 9 8 - - - 0 d 0 . . . . . . . . . .                         ",
"                                        D.].%X>X>X>X>X>X>X:X+X!.' a w * . . . - d d - . . . . . . . . .                         ",
"                                    ..D.R.[.%X>X>X>X>X>X>X*X}.].t.R > X . . . & 8 0 h q . . . . . . . .                         ",
"                                    r.d.`.[.|.;X>X>X>X>X;X%X{.`.y.F v z z , . . > S W ~ w . . . . . . .                         ",
"                                ..w.7.x.N.`.[.&X;X>X>X;X&X{.'.T.w.E B B B B B Z -.<.1.8._ e . . . . . .                         ",
"                                X.0.2.3.i.Y.`.{.|.&X&X%X{.'.T.y.9.:.=.=.-.;.<.2.g.g.2.,.q.L * . . . . .                         ",
"                                X.` C C E w.Y.'.{.|.|.{.'.T.y.9.;.1.1.1.1.3.h.l.n.h.;.D ` L * . . .                             ",
"                                X.U 1 . c W r.Y.`.'.'.`.T.d.i.7.3.g.g.3.1.1.g.k.k.3.Z m ^ L * . . .                             ",
"                                @.U 1 . . c W 0.r.u.u.r.0.9.j.k.l.l.l.g.-.C Z =.=.Z b m ^ L = . . .                             ",
"                                @./ 1 . . # N R R R R R R :.2.h.h.h.h.2.C @ @ z V B b M ^ L = . . .                             ",
"                                @./ ; . . . @ ; ; ; ; ; > v C Z *.*.*.C x # @ b -.;.*.D ( P = . . .                             ",
"                                @.( x : . . . . . . : ; X . . . . . + , b V v C ;.<.-.>.` P = . . .                             ",
"                                $.' B v : . . . . ; v v ; . . . . . . v =.-.*.Z =.-.=.>.` P = . . .                             ",
"                                #.' V v ; o ; ; X ; b v ; X > z z z z B ;.<.=.*.-.-.;.>.] K = . . .                             ",
"                                #.( n ; . ; b b ; + ; > # > b B B B B Z =.=.*.=.<.2.2.5.q.K - .                                 ",
"                                 .L H > X > v v > X > , , v B Z Z *.=.=.-.-.-.;.2.2.4.8.~ r & .                                 ",
"                                & 9 L I , @ > > # > b B B A C Z Z =.<.1.1.1.1.2.3.4.e.~ 9 & . .                                 ",
"                                . *  .o.M , , , , v B Z Z *.;.;.-.;.1.3.3.3.3.3.g.6.q.K - . . .                                 ",
"                                . *  .+.F B B B B C C Z Z ;.g.h.2.1.2.3.3.3.3.g.k.x.t.j - . . .                                 ",
"                                . . t / _ >.=.=.=.=.=.=.=.<.h.k.g.3.g.g.h.h.h.h.z.a.) r & . . .                                 ",
"                                . . . q O.A.5.1.1.1.1.1.1.2.3.g.3.g.k.l.n.n.n.z.f.) 9 & . .                                     ",
"                                . . . =  .V.s.p.p.6.g.g.g.h.h.h.h.k.n.m.z.v.v.a.) r & . . .                                     ",
"                                    . . = h V.I.I.T.b.l.l.l.l.l.l.n.m.z.f.t.t.) 9 & . .                                         ",
"                                    . . . =  .#.#.A.M.c.c.c.v.v.v.v.v.a.) g f r & . . .                                         ",
"                                        . . - 0 0 p ) r.r.r.r.r.r.r.t.) 9 - - & . .                                             ",
"                                        . . . . . . q f f f f f f f g r O . . . . .                                             ",
"                                                . . O = = = = = = = = & . .                                                     ",
"                                                . . . . . . . . . . . . . .                                                     ",
"                                                                                                                                ",
"                                                                                                                                ",
"                                                                                                                                ",
"                                                                                                                                ",
"                                                                                                                                ",
"                                                                                                                                "
};
