/* XPM */
static char *a67e7a1dd95b463cb2ceb3bb56226a55fo0B1i9WURA7KVyl[] = {
/* columns rows colors chars-per-pixel */
"64 64 160 2 ",
"   c None",
".  c #020202",
"X  c #0C0607",
"o  c #0E0807",
"O  c #0C0C0C",
"+  c #110A07",
"@  c #150D0A",
"#  c #190D0F",
"$  c #171109",
"%  c #1A1409",
"&  c #1C0F12",
"*  c #141414",
"=  c #1C1112",
"-  c #1C1B1B",
";  c #231516",
":  c #291517",
">  c #251518",
",  c #2B1719",
"<  c #231B1C",
"1  c #2C191A",
"2  c #30171B",
"3  c #331A1D",
"4  c #381B1F",
"5  c #2B2115",
"6  c #302616",
"7  c #33231B",
"8  c #3C271E",
"9  c #37281C",
"0  c #3C2B1E",
"q  c #231F20",
"w  c #3C1D21",
"e  c #242424",
"r  c #2B2425",
"t  c #2C2C2C",
"y  c #352527",
"u  c #392729",
"i  c #36282A",
"p  c #3C2B2D",
"a  c #372F30",
"s  c #3F2F31",
"d  c #333333",
"f  c #3C3233",
"g  c #3F3738",
"h  c #3C3C3C",
"j  c #40311F",
"k  c #411F23",
"l  c #452125",
"z  c #492227",
"x  c #402F20",
"c  c #4B2D26",
"v  c #4C2329",
"b  c #53262C",
"n  c #59272F",
"m  c #562B2D",
"M  c #58292F",
"N  c #453421",
"B  c #4E3725",
"V  c #4C3824",
"C  c #503427",
"Z  c #513C26",
"A  c #523528",
"S  c #553B28",
"D  c #5D2A31",
"F  c #5E2A31",
"G  c #5F2B32",
"H  c #5E2A32",
"J  c #5D2A31",
"K  c #423435",
"L  c #423435",
"P  c #433739",
"I  c #413A3B",
"U  c #463839",
"Y  c #463C3D",
"T  c #433A3B",
"R  c #483B3C",
"E  c #493C3D",
"W  c #483A3C",
"Q  c #554227",
"!  c #584127",
"~  c #584127",
"^  c #564029",
"/  c #594228",
"(  c #584128",
")  c #5E4A2B",
"_  c #634B2C",
"`  c #644D2D",
"'  c #68512F",
"]  c #6D5431",
"[  c #715733",
"{  c #715832",
"}  c #765A33",
"|  c #775A34",
" . c #755A34",
".. c #785D35",
"X. c #7F6338",
"o. c gray25",
"O. c #414141",
"+. c gray26",
"@. c #434343",
"#. c #474343",
"$. c #444444",
"%. c gray27",
"&. c #444545",
"*. c #454646",
"=. c #464646",
"-. c gray28",
";. c #444444",
":. c #494747",
">. c #4B4748",
",. c #484848",
"<. c #494949",
"1. c #494A4A",
"2. c gray29",
"3. c #4B4B4B",
"4. c #4C4C4C",
"5. c gray30",
"6. c #4E4E4E",
"7. c gray31",
"8. c #4C4C4C",
"9. c #504D4D",
"0. c #514E4E",
"q. c #505050",
"w. c #515151",
"e. c gray32",
"r. c #535353",
"t. c #535454",
"y. c gray33",
"u. c #555555",
"i. c #575455",
"p. c #565656",
"a. c gray34",
"s. c #545454",
"d. c #585556",
"f. c #575858",
"g. c #585858",
"h. c gray35",
"j. c #5A5959",
"k. c #5A5A5A",
"l. c #5B5B5B",
"z. c #5C5959",
"x. c #5C5B5B",
"c. c #5E5B5B",
"v. c #5E5B5C",
"b. c gray36",
"n. c #5D5D5D",
"m. c gray37",
"M. c #5F5F5F",
"N. c #5A5A5A",
"B. c #606060",
"V. c gray38",
"C. c #626262",
"Z. c gray39",
"A. c #656565",
"S. c #616161",
"D. c #856639",
"F. c #86673A",
"G. c #836539",
"H. c #88683B",
"J. c #8C6C3C",
"K. c #896A3B",
/* pixels */
"O X . . X O * * O X . . . . X O O X . . X O O X . . X O * * * * O O O O O O O X . . X O O O * * * * O O O X . . X X . . X O O O ",
"O * e t t d t d d d t e e e t d d d d t t t t t t e e t d d t t d t t t t t t t e e t t e e e e e e e e - - - - - * * * * * O X ",
"O e h <.4.4.<.4.y.y.4.O.h O.4.r.h.h.r.4.<.<.4.4.<.O.h O.4.4.<.<.4.4.O.O.4.4.<.O.h h O.$.O.h d d h h h h d d d t t e e e e e * . ",
"O t 4.h.h.h.h.h.B.M.y.<.-.8.y.M.B.B.h.y.r.y.M.M.h.r.<.<.r.y.y.y.h.h.4.4.h.M.h.y.q.4.r.r.<.O.h h O.O.O.O.h h h d d d t t t e * . ",
"O d y.M.h.h.M.B.h.y.4.<.$.<.r.h.M.M.r.4.r.y.B.B.M.y.<.$.<.r.h.M.M.h.r.r.h.M.B.B.h.h.h.y.4.$.O.O.h h h h O.O.h h d d d t t e * . ",
"O d y.M.h.h.B.B.y.4.<.<.<.4.r.y.y.y.r.4.4.r.h.M.y.4.O.h h $.4.r.r.r.<.<.4.y.h.h.y.y.y.r.4.<.<.$.O.h h h O.O.h h h d d d t e * . ",
"* d 4.h.h.M.M.h.4.<.4.r.y.h.h.y.r.4.y.r.$.O.$.$.h d t t t d d h h d d d d d h h h O.O.$.4.4.4.<.$.O.h h O.$.O.O.h h d d d e * X ",
"* d 4.h.M.M.h.y.4.4.y.h.M.h.h.r.<.<.4.4.h d d t - * * * - - - - - - - - * O * - e t d h $.<.<.<.<.$.O.h O.$.O.O.h h h d d e * X ",
"O d y.B.M.h.r.4.4.y.M.B.M.h.4.O.h h h d t e e - O . X X O O O O O O O O X . . O * - e t d h h ;.<.<.$.O.$.O.h h O.O.h d d e * . ",
"O h h.A.M.y.4.4.r.h.M.M.h.4.O.h d d t e - * * O X . . . . . . . . . . . . . . X O O * - e t d h $.<.<.<.$.O.h h O.O.h h d e * X ",
"* h h.A.h.r.4.r.y.h.r.4.<.O.h d d t e * O X X X                                 X X X O - e t d h $.<.4.<.$.;.O.h h O.h d t - * ",
"* h h.B.M.y.r.r.y.r.<.h h d d d t e - O X . . .                                 . . . X O - e t d h $.<.$.O.O.O.h O.$.O.d t - * ",
"O d y.B.B.M.y.r.4.<.O.h d t e e - - O X                                                 X O - - e t h h h h h h O.O.$.O.d e - O ",
"X t 4.M.B.B.M.r.<.h h d t e < = = * X .                                                 . X * = = e t d d d h h h O.O.h d e - O ",
". t <.y.M.B.B.h.<.h d t e < > > ; = X .                                                 . X = ; > > q e t d d h d d h h d t - * ",
". t <.h.M.B.B.h.$.d t e < ; , , > = X .                                                 . X = > , , ; < e t d d d d d d d t - * ",
"X t 4.M.B.B.y.<.h t e e < , 1 , > = X .                                                 . X = > , 1 , > < e t d d d d d d t - O ",
"X t 4.M.M.h.4.h d r e < 1 1 1 , > = X .                                                 . X = > , 1 1 , > < e t d h d d d t - O ",
". t <.y.r.4.O.d e < 1 2 1 1 1 , > = X .                                                 . X = > , 1 1 1 2 1 < e d h h h d t - * ",
". t 4.y.4.$.h t e 2 k k 4 1 1 , > = X .                                                 . X = > , 1 1 4 k k 2 r d h O.h d t - * ",
". d y.M.y.$.d e 1 k b b w 1 1 , > = X .                                                 . X = > , 1 1 w b b k i h O.h h h d e * ",
". d y.M.y.$.t ; 2 z D D l 1 1 , > = X .                                                 . X = > , 1 1 l D D z s +.<.h h h d e * ",
". t 4.y.4.h t ; 2 z D D l 1 1 , > = X .                                                 . X = > , 1 1 l D D z L 0.r.O.h O.h e * ",
". t <.t.r.$.t ; 2 z D M k 1 1 , > = X .                                                 . X = > , 1 1 k M M z U d.y.$.h h h e * ",
"X t 4.M.M.y.d = 2 k b v w 1 1 , > = X .                                                 . X = > , 1 1 w v v k R z.h.$.d d t e * ",
"O d r.M.B.t.d = 2 k z z 4 , , , > = X .                                                 . X = > , , , 4 z z k E v.M.$.d t t - * ",
"* d r.h.y.$.t = 2 w z z 4 1 1 , > = X .                                                 . X = > , 1 1 4 z z w E v.M.<.d t t - * ",
"* d r.h.4.h e = , w l c S Z 8 , > = X .                                                 . X = > , 8 Z S c k w Y z.M.<.d t t - * ",
"* d r.h.r.$.t = > , 2 Z | } Z , ; = X .                                                 . X = ; , Z } | Z , , I z.M.<.d d e - O ",
"* d 4.y.r.O.t - ; ; > ! D.H._ 0 1 & X .                                                 . X & 1 0 _ H.D.! ; ; h h.M.<.h d t - O ",
"O t <.r.$.h t < > : , ( D.J.{ Z 9 = X .                                                 . X = 9 Z { J.D.( : : g y.h.4.h h t - O ",
"O t O.$.h d e < 1 , 2 ( G.H.} ) j ; o .                                                 . o ; j ) } H.G.( 2 , L r.h.4.O.h t - O ",
"O e d h d t e < 2 4 4 S | X.{ ) N 5 @ .                                                 . @ 5 N ) { X.| S 4 4 L r.h.4.O.d t - O ",
"X - t d d t - ; 1 2 2 Z [ ..' Q j 6 % .                                                 . % 6 N Q ' ..[ Z 2 2 P y.h.4.h d e - O ",
". * t d d d e = > > , V [ { ( x 0 6 % .                                                 . % 6 0 x ( { [ V : > I h.M.<.h d t - * ",
". * t d d t e = > , w C ` ` N 1 7 5 $ .                                                 . $ 5 7 1 N ` ` C 4 , g d.h.<.h d t - * ",
". - t d d t - = , k b m A N 9 1 1 ; + .                                                 . + ; 1 1 9 N A m b k f 0.r.<.h h d e * ",
". - d h d t - & 2 z D D l 1 1 , > = X .                                                 . X = > , 1 1 l D D z L 0.y.4.$.h d e * ",
"X e h O.h t - & 2 z D D k , , , > & X .                                                 . X & > , , , k D D z U d.M.y.4.$.h e O ",
"X e h $.O.d - & 2 z D M k 1 1 , > = X .                                                 . X = > , 1 1 k M n z R z.B.f.4.<.h e O ",
". t O.4.$.h e = 2 k b v w 1 1 , > = X .                                                 . X = > , 1 1 w v v k U d.M.y.r.4.$.t O ",
". t <.r.<.h e = 2 k z z 4 , , , > = X .                                                 . X = > , , , 4 z z k L r.y.r.4.4.$.t X ",
"X t 4.y.4.h e ; 2 w z z 4 1 1 , > = X .                                                 . X = > , 1 1 4 z z w K 8.4.$.$.4.$.t . ",
"X d r.h.7.h t = , w k c S Z 8 , > = X .                                                 . X = > , 8 Z S c k w f 8.4.O.O.<.$.t . ",
". d r.h.r.$.t = > , 2 Z | } Z , ; = X .                                                 . X = ; , Z } | Z , , f 0.r.$.O.<.$.t X ",
". t 4.h.h.4.d - ; ; > ! D.H._ 0 1 & X .                                                 . X & 1 0 _ H.D.! ; ; f 0.r.$.O.<.$.t O ",
"X t <.h.B.y.h < > : , ( D.J.{ Z 9 = X .                                                 . X = 9 Z { J.D.( : : f 8.4.O.h $.h t * ",
"O t $.y.M.y.h < 1 , 2 ( G.H.} ) j ; o .                                                 . o ; j ) } H.G.( 2 , f :.<.h h h h e * ",
"O e h 4.y.4.d < 1 4 4 S | X.{ ) N 5 @ .                                                 . @ 5 N ) { X.| S 4 4 f >.<.h d h d e * ",
"O e h <.r.4.d < 1 2 2 B ] { ` Q N 6 % .                                                 . % 6 N Q ` { ] B 2 2 f >.<.h d d d e * ",
"* e d <.h.y.h < > , , N _ ` Z x 0 6 % .                                                 . % 6 0 x Z ` _ N : , a :.<.h d d d - O ",
"* e d $.h.y.h < > , w c ^ Z 0 1 7 5 $ .                                                 . $ 5 7 1 0 Z ^ c 4 , a :.<.h d d t - X ",
"O - d O.r.4.d < 1 k b m c 0 3 1 1 ; + .                                                 . + ; 1 1 3 0 c m b k f <.<.h t t t * . ",
"O - d O.<.$.t ; 2 z D D l 1 1 , > = X .                                                 . X = > , 1 1 l D D z s :.$.h t t e * . ",
"* e d h $.h t ; 2 z D D k , , , > & X .                                                 . X & > , , , k D D z p +.O.d t t e * X ",
"* e d h O.h e ; 2 z D M k 1 , > ; # X .                                                 . X # ; > , 1 k M M z p T h d t t e - O ",
"O - d h h d e ; 2 k b v w , > ; @ X                                                         X @ ; > , w v b k p T h d e t t - * ",
"O - d h h d e > 2 k z z 4 > ; # X .                                                         . X # ; > 4 z z k p h h t e t e - * ",
"O - d h h d e < 3 w z z 4 ; @ X                                                                 X @ ; 4 z z w u g d t e e e * O ",
"O - t d d t e < 1 w l w , # X .                                                                 . X # , w k w y f d t e e - * O ",
"* - t t t e - - > , 2 , # X                                                                         X # , 2 , r d d t e e - * * ",
"* - e e e - * * = = = # X .                                                                         . X # & = < t t e - - - * * ",
"O * - - * * O O o X X X                                                                                 X X X * - - - * * * * O ",
"O O * * O O O X . . . .                                                                                 . . . X * * O O * * O O "
};
