/* XPM */
static char *_f64d1408d1e48d4ff0d5b003257e9d9ZfHoPViZ5Rd8nwGs[] = {
/* columns rows colors chars-per-pixel */
"64 64 162 2 ",
"   c None",
".  c black",
"X  c #1A0000",
"o  c #1C0000",
"O  c #1E0000",
"+  c #210000",
"@  c #250000",
"#  c #280000",
"$  c #370000",
"%  c #380000",
"&  c #390000",
"*  c #3A0000",
"=  c #3E0000",
"-  c #3F0000",
";  c #400000",
":  c #410000",
">  c #420000",
",  c #430000",
"<  c #440000",
"1  c #470000",
"2  c #480000",
"3  c #490000",
"4  c #4F0000",
"5  c #500000",
"6  c #510000",
"7  c #520000",
"8  c #530000",
"9  c #540000",
"0  c #550000",
"q  c #560000",
"w  c #570000",
"e  c #580000",
"r  c #590000",
"t  c #5A0000",
"y  c #5B0000",
"u  c #5C0000",
"i  c #5D0000",
"p  c #5F0000",
"a  c #600000",
"s  c #620000",
"d  c #630000",
"f  c #640000",
"g  c #650000",
"h  c #660000",
"j  c #680000",
"k  c #6D0000",
"l  c #6E0000",
"z  c #6F0000",
"x  c #700000",
"c  c #720000",
"v  c #730000",
"b  c #740000",
"n  c #750000",
"m  c #760000",
"M  c #770000",
"N  c #780000",
"B  c #790000",
"V  c #7B0000",
"C  c #7C0000",
"Z  c #7D0000",
"A  c #7E0000",
"S  c #7F0000",
"D  c #4F3700",
"F  c #773700",
"G  c #605B00",
"H  c #6D5B00",
"J  c #800000",
"K  c #810000",
"L  c #820000",
"P  c #830000",
"I  c #840000",
"U  c #850000",
"Y  c #860000",
"T  c #870000",
"R  c #880000",
"E  c #890000",
"W  c #8A0000",
"Q  c #8B0000",
"!  c #8C0000",
"~  c #8D0000",
"^  c #8E0000",
"/  c #8F0000",
"(  c #900000",
")  c #910000",
"_  c #920000",
"`  c #930000",
"'  c #940000",
"]  c #950000",
"[  c #960000",
"{  c #970000",
"}  c #980000",
"|  c #990000",
" . c #9A0000",
".. c #9B0000",
"X. c #9C0000",
"o. c #9D0000",
"O. c #9E0000",
"+. c #9F0000",
"@. c #A00000",
"#. c #A10000",
"$. c #A20000",
"%. c #A30000",
"&. c #A40000",
"*. c #A50000",
"=. c #A60000",
"-. c #A70000",
";. c #A80000",
":. c #AA0000",
">. c #AB0000",
",. c #AC0000",
"<. c #AD0000",
"1. c #AE0000",
"2. c #AF0000",
"3. c #B00000",
"4. c #B10000",
"5. c #B20000",
"6. c #B30000",
"7. c #B40000",
"8. c #B70000",
"9. c #B80000",
"0. c #B90000",
"q. c #BA0000",
"w. c #BB0000",
"e. c #BC0000",
"r. c #BD0000",
"t. c #BE0000",
"y. c #BF0000",
"u. c #863700",
"i. c #9F3700",
"p. c #C20000",
"a. c #C40000",
"s. c #C50000",
"d. c #C60000",
"f. c #C70000",
"g. c #C90000",
"h. c #CA0000",
"j. c #CB0000",
"k. c #CC0000",
"l. c #CD0000",
"z. c #D00000",
"x. c #D10000",
"c. c #D20000",
"v. c #D30000",
"b. c #D40000",
"n. c #D60000",
"m. c #D70000",
"M. c #D80000",
"N. c #D90000",
"B. c #DB0000",
"V. c #DF0000",
"C. c #E00000",
"Z. c #E10000",
"A. c #805B00",
"S. c #8F5B00",
"D. c #905B00",
"F. c #995B00",
"G. c #BD5B00",
"H. c #C65B00",
"J. c #9B9200",
"K. c #A79200",
"L. c #AF9200",
"P. c #BA9200",
/* pixels */
"                                                                                                                                ",
"                                                                                                                                ",
"                                                                                                                                ",
"                                                                                                                                ",
"                                                            . . . .                                                             ",
"                                                            - > > -                                                             ",
"                                                        . > d z z d > .                                                         ",
"                                                        p t V W W V t p                                                         ",
"                                                    C.a.) V ^ | | ^ V ) a.C.                                                    ",
"                                                    a.e.>.+.| | | | +.>.e.a.                                                    ",
"                                                    V { w.e.@.W W @.e.w.{ V                                                     ",
"                                                    . F G.H.i.S S i.H.G.F .                                                     ",
"                                                    . H L.P.F.S S F.P.L.H .                                                     ",
"                                                    . G J.K.D.S S D.K.J.G .                                                     ",
"                                                    . D A.S.u.J J u.S.A.D .                                                     ",
"                                                    - w v J T W W W J v w -                                                     ",
"                                                . > d v S T ) | | ) T S v d > .                                                 ",
"                                                6 h S W W ^ | +.| { ^ W W V t -                                                 ",
"                                            . 6 S ^ { | | | +.| ) ^ { | | ) V d - .                                             ",
"                                            6 z ) +.| +.*.>.>.@.) ) @.>.>.@.) V t -                                             ",
"                                        . 6 S ) +.| ) | 1.w.w.3.@.@.3.w.w.3.@.) V d - .                                         ",
"                                        6 z ) +.| ) T ) 1.w.w.3.*.*.3.7.7.1.*.| ^ V p >                                         ",
"                                    . 6 S ) +.| ) T J ^ @.>.>.*.@.@.*.*.| | +.+.| ) V d - .                                     ",
"                                    . w W @.@.| W J J W | *.1.7.7.1.@.) T W | @.@.| W z > .                                     ",
"                                    . w W @.@.| W S J W | 1.a.c.c.p.@.T J W | @.@.| W z > .                                     ",
"                                    6 z ) +.+.^ S v V W +.7.l.m.c.p.@.T J J W ) +.+.) V p >                                     ",
"                                . 6 S ) | | ) V p w v ) 1.e.a.a.w.1.@.) T M d z ) +.| ^ S d - .                                 ",
"                                . w W +.| ) S d % > z | w.h.h.a.w.3.1.@.^ z > 3 V ) +.| W z > .                                 ",
"                                . w W +.) S t $ X - z +.a.M.M.m.c.l.e.1.) z > @ 3 v ) | W z > .                                 ",
"                                6 v ) | W v > . . > z +.a.m.m.c.c.h.e.1.) z > . . w ^ +.) V t -                                 ",
"                        . . . 6 S ) | | W z > . . > z | w.a.w.7.7.3.1.@.^ z > . . w W +.| ^ S h - . . .                         ",
"                        6 6 3 h ^ @.@.{ S h - . . > z | w.a.w.7.7.3.1.@.^ z > . . 6 S ) +.| ) S p 3 6 6                         ",
"                    . 6 S T M S { @.@.^ h >     . > z +.a.m.m.c.c.h.e.1.) z > .     6 z ) +.+.^ V M T S 6 .                     ",
"                    . w W | W T ) | | T 6 .     . > z +.a.m.m.c.c.h.e.1.) z > .     . 6 T | | ) T W | W w .                     ",
"                    . w W | W J T W W M < .     . > z | w.a.w.7.7.3.1.@.^ z > .     . < M W W T J W | W w .                     ",
"                    . w W | W S v z z d > .     . > z | w.a.w.7.3.3.1.@.^ z > .     . > d z z v S W | W w .                     ",
"                    . w W | W M w > > -         . > z +.a.m.m.c.c.h.e.1.) z > .         - > > w M W | W w .                     ",
"                    . 6 S T M d - . . .         . - z +.a.M.V.C.C.M.h.3.{ z > .         . . . - d M T S 6 .                     ",
"                        6 6 3 >                 . > z { w.c.M.C.C.M.h.3.{ z > .                 > 3 6 6                         ",
"                        . . . .                 6 d M ^ *.e.c.M.M.c.e.*.^ v w >                 . . . .                         ",
"                                            . 6 S W T T ^ *.e.h.h.e.*.^ T S M d > .                                             ",
"                                            . w W | ) T J ^ +.>.>.+.W J T W J z > .                                             ",
"                                            . w W +.| ) T V z h h z V T ) ) W z > .                                             ",
"                                            . w W @.@.| W v > . . < V ) | | W z > .                                             ",
"                                            . w W @.@.| W z > . . 4 T | +.| W z > .             . .                             ",
"                                            . w W +.| ^ S h 6 > > p S ) | | ) M < .             > >                             ",
"                                            . w W | ) V p 6 h z v j p v ) +.| T 6 .         . > d d > .                         ",
"                                            6 v ) | W z > > z J J z > w W @.@.^ h >         . > d h 6 >                         ",
"                                        . 6 S ) | | W z > > z J J z > w W @.@.{ S d - .         > 6 h d > .                     ",
"                                        . w W @.@.| W z > > z J J z > w W @.@.| W z > .         > t M z < .                     ",
"                                        . w W @.@.| W z > > z J J z > w W @.@.| W z > .     . - d M S z < .                     ",
"                                        . w W @.@.| W z > % p M S z > w W @.@.| W z > .     > t M J J z > .                     ",
"                                        . w W @.@.| W z > O % t M z < w W @.@.| W z > . . > d M S J J z > .                     ",
"                                        . w W +.| ^ S h - . . < z M t p S ) | | ) M < O $ t M J J S M d > .                     ",
"                                        . w W | ) V p >     . > z S M j p z ) +.| T 6 % p v S J J M t >                         ",
"                                        6 v ) | W z > .     . > d M S z < w ^ @.@.^ h 4 d v S S M d > .                         ",
"                                    . 6 S ) | | W z > .         > t v z > w W @.@.{ S h 6 t M M t >                             ",
"                                    6 z ) +.| ^ V d - .         . > d p % 3 V ) | | ) V t 6 h d > .                             ",
"                                . 6 S ) +.+.) V p >                 - % + # 3 z ) +.| ) V h 6 >                                 ",
"                                . d +.1.@.+.+.^ w .                 . . . . . d +.1.@.+.+.^ w .                                 ",
"                                . v 7.p.@.@.e.3.z .                         . v 7.p.@.@.e.3.v .                                 ",
"                                . M 3.3.^ ^ 3.3.M .                         . M 3.3.^ ^ 3.3.M .                                 ",
"                                    M z w w z M                                 M z w w z M                                     ",
"                                    . . . . . .                                 . . . . . .                                     "
};
