/* XPM */
static char *_2f3798c32714f0b9e4eea9933ae62e5ojaWyMcmC15DGy5J[] = {
/* columns rows colors chars-per-pixel */
"64 64 162 2 ",
"   c #162F2F",
".  c #173131",
"X  c #193333",
"o  c #1D3B3B",
"O  c #203F3F",
"+  c #1F4141",
"@  c #214242",
"#  c #284747",
"$  c #264C4C",
"%  c #2A4C4C",
"&  c #344E4E",
"*  c #2A5454",
"=  c #2C5959",
"-  c #355252",
";  c #395555",
":  c #3B5A5A",
">  c #346262",
",  c #3C6565",
"<  c #3D6866",
"1  c #3F6868",
"2  c #415E5E",
"3  c #446262",
"4  c #486666",
"5  c #436B6B",
"6  c #4B6D6D",
"7  c #477272",
"8  c #4C7272",
"9  c #527474",
"0  c #557979",
"q  c #5B7C7C",
"w  c #607F7F",
"e  c #5F807F",
"r  c #5E8282",
"t  c #638585",
"y  c #668A8A",
"u  c #6A8E8E",
"i  c #6D9292",
"p  c #719897",
"a  c #749B9B",
"s  c #789F9F",
"d  c #77A0A0",
"f  c #7BA4A4",
"g  c #7EA2A8",
"h  c #7FA9A9",
"j  c #8D87A3",
"k  c #868FA9",
"l  c #908EA8",
"z  c #8294AD",
"x  c #8B94AD",
"c  c #9894AD",
"v  c #8599B2",
"b  c #9B9AB3",
"n  c #A29AB2",
"m  c #82ADAD",
"M  c #8AA7B7",
"N  c #8CA4BB",
"B  c #8FABBF",
"V  c #90A0B7",
"C  c #94A4BB",
"Z  c #97A9BF",
"A  c #86B2B2",
"S  c #89B6B6",
"D  c #89B8B7",
"F  c #8CBABA",
"G  c #90BFBF",
"H  c #A7A4BB",
"J  c #A3A9BF",
"K  c #93AFC4",
"L  c #9BAFC4",
"P  c #93B3C5",
"I  c #9BB0C5",
"U  c #94BFC5",
"Y  c #99B7CB",
"T  c #9ABACD",
"R  c #A7B0C5",
"E  c #ADB0C5",
"W  c #A1BBCE",
"Q  c #ADBACE",
"!  c #B3BACE",
"~  c #ADB2E7",
"^  c #ABBEE3",
"/  c #AFB5E9",
"(  c #BDB2E7",
")  c #BFB6E9",
"_  c #B2BBED",
"`  c #D5AFE4",
"'  c #C0B7EA",
"]  c #C1BAEC",
"[  c #D6B1E6",
"{  c #D7B4E8",
"}  c #DBBCEE",
"|  c #C0BFFF",
" . c #E5B6E9",
".. c #E7BAEC",
"X. c #E8BEEF",
"o. c #F1BFFF",
"O. c #FFBFFF",
"+. c #8FC1C1",
"@. c #92C3C3",
"#. c #9AC0CE",
"$. c #96C9C9",
"%. c #9ACDCD",
"&. c #9AD0CF",
"*. c #9EC6D3",
"=. c #9ECED3",
"-. c #9DD2D2",
";. c #A0C7D5",
":. c #A3C7D9",
">. c #A4CCDB",
",. c #B4C6D9",
"<. c #BAC7D9",
"1. c #A1D6D6",
"2. c #A3D5D9",
"3. c #A4DBDB",
"4. c #B3CBEE",
"5. c #ABD4E3",
"6. c #ABDFE3",
"7. c #AFDBE9",
"8. c #B1D2E3",
"9. c #B1DFEB",
"0. c #BEDDE9",
"q. c #B7C3F3",
"w. c #B9C6F6",
"e. c #B5CFF1",
"r. c #BAC9F7",
"t. c #BFC0FF",
"y. c #B6D0F2",
"u. c #BAD6F7",
"i. c #AAE2E2",
"p. c #AFE5E9",
"a. c #AFE9E9",
"s. c #B3E2EC",
"d. c #B2EDED",
"f. c #B9EBEF",
"g. c #B5E6F1",
"h. c #B7E8F3",
"j. c #B9EAF5",
"k. c #BAEDF8",
"l. c #B6F2F2",
"z. c #BAF7F7",
"x. c #BAF8F7",
"c. c #BFF1FF",
"v. c #BCFAFA",
"b. c #C1D2E3",
"n. c #C4D8E9",
"m. c #C8C7F6",
"M. c #C0C0FF",
"N. c #DEC2F2",
"B. c #D4C0FF",
"V. c #C0D3FF",
"C. c #C0D4FF",
"Z. c #EBC5F5",
"A. c #EDC9F8",
"S. c #F1C0FF",
"D. c #FFC0FF",
"F. c #E1D6F7",
"G. c #E4DDFD",
"H. c #F1D3FF",
"J. c #CAEEF9",
"K. c #C0F1FF",
"L. c #C0FFFF",
"P. c #D3F1FF",
/* pixels */
"D.H.P.v.v.P.H.D.O.D.D.S.B.M.t.t.M.B.S.D.D.S.B.t.t.B.S.S.B.B.S.S.B.| t.V.K.L.L.L.L.L.L.z.d.i.i.i.i.3.$.@.@.$.3.i.i.3.$.A i t q t ",
"H.G.J.x.x.J.F.A.A.Z.Z.} ] _ _ _ _ ] }  . .[ ( ~ ~ ( [ { ' ) [ ` ( ~ / 4.j.x.x.z.l.l.d.p.3.-.%.%.%.@.D A A F %.3.3.3.@.h y 9 9 9 ",
"P.J.f.a.a.s.0.n.n.b.<.Q L B B P T W R H n c x z z x c b C V l j k v N T 3.a.a.i.3.%.@.F S m h f f s p i i f F -.3.-.D p 9 ; & & ",
"L.x.a.3.3.3.3.3.3.-.@.A m h h m A A f i t q 0 0 0 0 q y p i 8 5 0 t i m -.3.3.-.@.A h s a i t q 0 0 q w t i m @.-.%.D p 4 o . X ",
"v.x.a.3.%.%.3.3.&.+.A m A D D A m f i t r 0 6 < < 6 0 y p i 7 < 9 e t h %.3.-.@.A h f p u t t 0 6 6 0 q w y s A @.@.F f 6 o     ",
"c.k.p.3.%.%.-.-.@.A m m A F F D h s p i u r 8 , > , 8 r u y 8 8 r t t s @.-.@.A f p p i r 0 q 0 7 6 9 q t p h S F F F f 6 o . X ",
"V.u.7.3.3.-.%.@.A m A A m A F D h h m m f i r 8 , > , 5 7 8 0 r i i t p D @.A f i y y r 8 7 0 q 0 9 6 9 u h @.%.@.F m i 4 X o o ",
"B.m.8.3.3.-.@.A h h D F A m A A h h D D h a u r 5 > < , > 5 0 y p s p s m A f i t q 0 8 , , 8 0 0 8 , 7 i A -.1.@.A h u 2 X o @ ",
"o.N.,.$.$.@.A h f h D F F A m h f h D D h s a u 7 , 8 8 , 5 0 y p h m A m f i t t 0 6 , > > , 5 5 , > 8 i A -.-.F h f u 2 X o @ ",
"S.} Q F F D h f h m A F F S f a s h m m f a s i 0 6 9 8 , < 8 r i f A D S h p t q 8 , > , 5 7 7 5 5 7 q u m $.%.A f h i 4 o o @ ",
"B.] L m D D h h A A m A F A a u p s p i u i a p t 9 6 , > > , 8 r i f S $.@.h u 9 , > , 8 r u u r r u u u s F F m h A f 6 o o @ ",
"B.' Z h D D h h D D h h A m p u i i t t w t i i r 9 6 5 5 , > 5 0 t i A 1.3.D i 7 > < 8 r i f h m A A m s s A A h h A f 6 o o o ",
"S.} J h D D h h D D h f h h s i u t t q w t t r 8 6 9 0 0 8 , 5 0 t t A i.p.F i 7 , 8 r i f A @.3.i.3.$.F A m h f f h i 4 X . X ",
"D...E m A A m m A m h s a s h f i t t t t t t q 0 0 t t t 0 7 8 r u a @.d.d.@.i 0 7 r p A @.%.3.d.d.3.$.F m h f s f s u 4 o X X ",
"D.X.! A m m A A s p s p u p m A f i t t i i t t u i p i t q 0 r i h @.3.l.d.@.p r r i A 3.d.l.d.d.3.@.m s p s f f s f i 7 * @ o ",
"o.} Q A m m A m p u i i u p m A h a u i a a i u i a s a i t t u h F -.3.p.3.D s p p f F 3.d.d.p.3.%.A p u u i a s s p y 7 = # o ",
"B.] I m A A m h s i u u i s h h f s a a s s a i u i a s a i t a @.%.%.@.@.S h h m A S F F G F @.@.F m s p i u i a a i r 5 * @ X ",
"C.4.P A D D h f h h f f h h h h f f h h f s a i u i f h f s p m $.-.@.A h f h m A D F D h f s h A S m h h f i i f h s y 4 $ o X ",
"c.s.%.F F D h h A F $.@.F D D A h h A A h a i u i f A A h h m D @.@.A h f h A A m A F D h s s f h m A D D A f f A S A s 6 @ o o ",
"K.g.=.@.@.@.A A @.%.1.1.%.@.@.F S F @.@.m p u i f A @.@.A m A S S A h f h A F F A m A A h f s s a s m A S A h h m S S f 6 X o @ ",
"C.e.*.@.-.-.@.@.-.-.%.%.-.-.@.@.%.-.1.%.A s p f A @.-.-.@.S m h h h f h A F F F F A m h f f f a u u i a f h f s p p f i 4 X o @ ",
"V.y.>.%.-.-.%.-.3.1.@.G $.$.@.G $.-.1.%.S h f h A G $.$.@.S m h f f h m A D D F F D h f h h h f i t t t i p p i r r i t 2 X o o ",
"K.j.6.-.%.%.-.3.3.-.D m m A m m A F @.@.F A h f h m A A m m A A h h A A m h h A F D h h A D D A f i t t t y y r 8 8 r 0 : o X X ",
"L.x.a.3.%.%.-.1.-.$.S h f s s s a s m A S A h f h h h h f h A A m A D D h s s h A A m m A F F F A f p i u t t 0 5 , 8 6 - o X X ",
"L.x.a.3.3.-.%.@.D S S A h s s p u y i p f h f h A D D A h f h m S F F D h f s f h m A A m A F F F S A m s i t 0 5 > , : % X o o ",
"K.j.6.3.3.-.@.D h h A A h f h f i t t y p f h m S D D A m h f h D @.@.@.A h h h f h m m h h A D D F F D h a u r 8 , > * + X o @ ",
"V.y.>.$.$.@.@.D h f h h f h A A f i t y p h A A m h h m A A h h D @.-.-.@.D D A h s p p s f h h h A F D h s a i r 8 , * + X o @ ",
"M.q.:.@.@.@.@.@.A h h h f h A S m s u t i f A A h f h m m m f h F $.-.%.@.@.@.D h a u u i p p p s h A A f a s a i r 8 : # o o @ ",
"| w.5.-.@.@.-.-.@.D D A h f h m S m i t t i f h f h A A s i u f @.%.F S F @.@.D h s p i u y y u a f h f i i a s a i r 6 - o o @ ",
"M.w.5.-.%.%.-.1.%.@.@.F A h f h D A a y y u i a s h m f y 0 q f %.-.A h A D D A h f s p y t t i f h h f u t i a s p y 9 - o o @ ",
"M.q.:.%.-.-.%.%.-.-.@.F F A h h D S f p p i u u a s p y 8 6 0 f %.-.A f f h h h f f s p y t i f A D D m i t t i a p y 9 - o o @ ",
"M._ T @.-.-.@.@.-.-.@.F D A m m A A m h h f i u i i t q 9 0 t f $.%.D h h h f f h h s i u u i f A D D A s i u i a p y 9 ; @ o @ ",
"M._ K A @.@.A A @.$.@.F A m A A m m A D D A f i u t t t u i p h F @.F D D A h h A m p u i i u i f h h m A m f a s p y 0 , * # @ ",
"| _ K A D F A m A F F F A m A A m m A D D A h a u u i s m A m m A D D D D A h h A m p u p a u u a f f h D S f a s a u r 5 = # o ",
"M._ T F F F F A m m F F F A m m A A m h h h f s a s m F $.%.@.A m h h h h h f f h h s a s s a a s s f h D A a i p s a u 7 * @ X ",
"C.4.#.F F F F A m A F F F A h h A A h s s f h h f h D @.%.%.@.A h f h h f f h h f f h h f s a a s f h m A m p i f h h p 8 * o X ",
"K.s.U A D F A m A F F F A h f f h h f s f h A A h h D F D A m h f h A A h h A A h h A A h a i i a h A S m f s f A D D f 9 # o o ",
"K.s.U m A A m m A F F D h f f s a a s f h m S A m m A A h s a p p f A A f f S F D S S S m f i u a h D S f p s h D F F f 8 O o o ",
"C.4.#.A m m A A m A D S h f f a u u a h A A m m A A m h f p u y y i f f i p A @.%.$.S m A A f p s h D A a u p h D F A p 4 o X X ",
"C.4.#.A m m A A h h A A h s a i t y p h m m f f A S m h f p y q 0 r u u t p D $.-.@.m h S D h f s h A m p u p h A S m p 4 o . X ",
"K.s.U m A A m h f f h h f a i t t y p s p i u i f m A A h p y 0 6 5 7 9 q s @.-.F m h h D D h f s f h h s a s f h m A f 8 o . X ",
"K.9.F h A A m h f s a a s p y q 0 r i p u y y u a h A A h a u r 8 < > , 0 f %.-.F h f h A A f s f h f f h h h h f h A f 8 o . X ",
"C.4.B f h m A A h a u i a p y 0 6 8 r u i p p a s f h h f s a i r 8 < , 0 f %.1.@.A h f h f i p m A h h A D D A h f h p 4 o . X ",
"| _ K h f h D D h a u u i p u t 0 8 9 r i a s s a a s s f f h h a i r y p A @.%.@.S f a s a i p m A h h A D D S m h s y 3 o X X ",
"| _ T A h h D D h s p i u u i p i y 8 7 r i a a i i p s f h A S A A m A @.@.F D F A a i p s a s h h f f h h h m A m p 0 : O o o ",
"C.e.*.D h h A A f a s p y t i p i u q 0 q y p a i i a s a s m A S D D @.%.$.S m A m i t i a s s f s a a s s p f m h y 6 - @ o @ ",
"K.g.=.D h f h f i i a p y t t t 0 q y u t y p s a a s a i u i a f h m m A S S A m f u t t u a f f p i i p p u u i y 9 , % @ @ @ ",
"K.h.2.@.A h h f i u i p u t t 0 5 7 u i u u p a s s a i u t t t i p p a s h A A h a u y y i f h f p y t i i r 0 0 9 6 : % O o o ",
"C.u.5.-.@.D D A f i u u i i t 0 1 5 r u p i u i a a i u i i t t t y y u p f h h f s a p p f A A h p y t t r 8 5 1 6 9 6 - o X X ",
"M.w.>.%.@.F F A h p y y p a i r 8 6 0 t i i r r i p u u i i t t t y y u i a s f f f h h f h D F A f i y y t 0 7 5 9 y t 3 o X X ",
"| _ Y D F F A h f p y y p s a i r 0 q t t r 8 8 r u i i u t t t i p p i u i a s f h A A h h S F F A f p p p i y r u f s 6 o . . ",
"r.^ M f A A h s a i u u i a s a i y y t q 8 , , 8 r i i u t t u s h h s u u s h f h A A m m A F F F A h s a s s p h F A 0 o X X ",
"7.;.g i f h f a u u i i u i a s a p p u 0 , > > , 8 r u p i t i m D D m i i m A h f h m S A m m D F D m p i a h m F -.+.r O o o ",
"i.%.h u i p p i u i a p y t i a s f h a q , > > , 6 9 r p s p f S F F m p p A D h f h m S A h h A D D m p i f A @.%.-.D q o o o ",
"i.-.m i u y y u i a s p y t t u a h A m u 8 , , 8 9 6 0 i h m S F F A h s f S D h h A A m h f f h h h f s f A @.-.-.F d 6 o X X ",
"i.-.m p u y y u i p p i r 0 q t i f S A a r 8 6 9 9 6 0 i h D @.@.F D A A S S A h h A A h s a p p a s s a f A U %.@.m y 3 o X X ",
"i.%.h u i p p i u y y r 8 7 0 t t a A S h i r 9 6 6 9 t p h D @.@.@.%.-.-.$.S h f f h h f a u y y u a p i i f m A m p 0 : o o o ",
"3.@.s y p s a p u y t 0 5 5 0 w t i m S m f i r 8 7 0 y p h m S S @.%.-.-.@.m f d s a p i u t t t i a p y t i a a i r 6 - O o o ",
"$.D p y p a i u i i t 0 5 5 0 w t u f m S A f i r 0 q y p s p p f m A A A m h f s a u t 0 0 q t i a s p y t t y t r 8 , % o X X ",
"A f t q y y q 0 t y q 8 , , 6 9 9 0 t i f f i t 0 9 9 0 y y 0 0 y i i i i i i u u t 0 6 , , 6 0 y u u t 0 9 9 9 9 6 , * # o X X ",
"i t 6 : 3 3 : : 2 3 5 , * % & - ; : 2 4 6 8 4 2 : ; - ; 3 2 ; ; 2 4 7 8 8 7 4 3 3 2 : - % % & ; 3 4 3 2 : ; & & & & % # @ o X X ",
"t 0 ; O o o o o X @ * * # o X X o o X X o o X X o o X X o o X X o # * = * * # o o o o O o o X X o o X X o o X X   X o o o o X X ",
"q 9 ; o X X X X o o # # o X . X o o X     . o o X X X   . .   X o + # # + o o o o o o o X X .   . X o o X X .       X X X X o o ",
"t 0 ; o X X X X o @ @ o X X   X o o X X X X o o X X X X X     X o @ @ o X X o @ @ @ @ o X X X X X X o o X X X X X X   X   X o @ "
};
